<?xml version="1.0" encoding="utf-8"?>
<!-- Generator: Adobe Illustrator 24.3.0, SVG Export Plug-In . SVG Version: 6.00 Build 0)  -->
<svg version="1.1" id="Layer_1" xmlns="http://www.w3.org/2000/svg" xmlns:xlink="http://www.w3.org/1999/xlink" x="0px" y="0px"
	 viewBox="0 0 10000 10000" style="enable-background:new 0 0 10000 10000;" xml:space="preserve">
<style type="text/css">
	.st0{fill:url(#SVGID_1_);}
	.st1{fill:url(#SVGID_2_);}
	.st2{fill:url(#SVGID_3_);}
	.st3{fill:url(#SVGID_4_);}
	.st4{fill:url(#SVGID_5_);}
</style>
<linearGradient id="SVGID_1_" gradientUnits="userSpaceOnUse" x1="-341.5666" y1="-219.217" x2="10189.5303" y2="9596.5605">
	<stop  offset="0" style="stop-color:#231F20"/>
	<stop  offset="0.416" style="stop-color:#FF0000"/>
	<stop  offset="0.8232" style="stop-color:#231F20"/>
</linearGradient>
<path class="st0" d="M4951.98,0L3667.84,1095.38L2329.82,2236.72l-737.41,629.01c-330.29,281.74-331.69,737.31-4.68,1020.25
	l742.09,633.01l1338.02,1141.34l1338.02,1140.94l-737.88,629.41c-331.45,282.73-868.83,282.73-1200.28,0L0,4813.92V2700.59
	c0-277.38,179.32-532.16,466.34-662.55l1064.23-483.49l1745.61-793.26L4951.98,0"/>
<linearGradient id="SVGID_2_" gradientUnits="userSpaceOnUse" x1="1286.7937" y1="9483.876" x2="7753.7998" y2="691.1956">
	<stop  offset="0" style="stop-color:#231F20"/>
	<stop  offset="0.5022" style="stop-color:#FBB03B"/>
	<stop  offset="0.8232" style="stop-color:#231F20"/>
</linearGradient>
<path class="st1" d="M8418.83,6171.85L5068.52,9029.69c-7.07,6.03-15.14,11.14-23.95,15.17l-44.34,20.3l-35.14-15.99
	l-1693.13-769.28l-1745.61-792.86l-1059.98-481.5C179.34,6875.14,0,6620.35,0,6342.96V4813.92l3067.7,2616.76
	c331.45,282.73,868.83,282.73,1200.28,0l737.88-629.41l1337.55-1140.94l1338.02-1141.34L8418.83,5148
	C8750.28,5430.73,8750.28,5889.12,8418.83,6171.85z"/>
<linearGradient id="SVGID_3_" gradientUnits="userSpaceOnUse" x1="9423.332" y1="8477.4502" x2="759.6339" y2="12.006">
	<stop  offset="0" style="stop-color:#231F20"/>
	<stop  offset="0.3503" style="stop-color:#00A551"/>
	<stop  offset="0.8232" style="stop-color:#231F20"/>
</linearGradient>
<path class="st2" d="M10000,4214.88v2128.15c0,277.36-179.3,532.12-466.28,662.52l-1052.58,478.28l-1745.61,792.86l-1677.21,761.69
	l3360.51-2866.53c331.45-282.73,331.45-741.12,0-1023.85L6343.41,3377.65L5005.85,2236.72l737.41-629.02
	c331.45-282.73,868.83-282.73,1200.28,0l737.41,629.02L10000,4214.88z"/>
<radialGradient id="SVGID_4_" cx="4858.4673" cy="1755.8236" r="647.9468" gradientTransform="matrix(4.9406 0 0 -1.3011 -18998.1016 11441.4463)" gradientUnits="userSpaceOnUse">
	<stop  offset="0" style="stop-color:#231F20"/>
	<stop  offset="0.0923" style="stop-color:#434040;stop-opacity:0.9077"/>
	<stop  offset="0.272" style="stop-color:#7C797A;stop-opacity:0.728"/>
	<stop  offset="0.446" style="stop-color:#ABA9A9;stop-opacity:0.554"/>
	<stop  offset="0.61" style="stop-color:#CFCECF;stop-opacity:0.39"/>
	<stop  offset="0.7616" style="stop-color:#EAE9E9;stop-opacity:0.2384"/>
	<stop  offset="0.8962" style="stop-color:#F9F9F9;stop-opacity:0.1038"/>
	<stop  offset="1" style="stop-color:#FFFFFF;stop-opacity:0"/>
</radialGradient>
<ellipse class="st3" cx="5005.85" cy="9156.96" rx="3201.27" ry="843.04"/>
<linearGradient id="SVGID_5_" gradientUnits="userSpaceOnUse" x1="8741.4443" y1="392.3051" x2="1382.6979" y2="8248.5439">
	<stop  offset="0" style="stop-color:#231F20"/>
	<stop  offset="0.389" style="stop-color:#0000FF"/>
	<stop  offset="0.8232" style="stop-color:#231F20"/>
</linearGradient>
<path class="st4" d="M5071.91,11.19l1659.4,753.3l1745.61,793.26l1056.83,480.27c286.96,130.41,466.24,385.16,466.24,662.51v1514.35
	L7680.96,2236.72l-737.41-629.02c-331.45-282.73-868.83-282.73-1200.28,0l-737.41,629.02L3667.84,3377.65L2329.82,4518.99
	l-742.09-633.01c-327.01-282.94-325.6-738.51,4.68-1020.25l737.41-629.01l1338.02-1141.34L4951.98,0"/>
<g>
</g>
<g>
</g>
<g>
</g>
<g>
</g>
<g>
</g>
<g>
</g>
<g>
</g>
<g>
</g>
<g>
</g>
<g>
</g>
<g>
</g>
<g>
</g>
<g>
</g>
<g>
</g>
<g>
</g>
</svg>
